<?xml version="1.0" standalone="no"?>
<!DOCTYPE svg PUBLIC "-//W3C//DTD SVG 20010904//EN"
 "http://www.w3.org/TR/2001/REC-SVG-20010904/DTD/svg10.dtd">
<svg version="1.0" xmlns="http://www.w3.org/2000/svg"
 width="1024.000000pt" height="1024.000000pt" viewBox="0 0 1024.000000 1024.000000"
 preserveAspectRatio="xMidYMid meet">
<metadata>
Created by potrace 1.16, written by Peter Selinger 2001-2019
</metadata>
<g transform="translate(0.000000,1024.000000) scale(0.100000,-0.100000)"
fill="#000000" stroke="none">
<path d="M0 5120 l0 -5120 5120 0 5120 0 0 5120 0 5120 -5120 0 -5120 0 0
-5120z m5441 4450 c589 -45 1103 -183 1624 -434 890 -430 1628 -1169 2062
-2066 370 -765 512 -1646 403 -2494 -122 -948 -548 -1832 -1218 -2527 -451
-468 -1054 -854 -1694 -1085 -83 -30 -358 -114 -373 -114 -17 0 -15 34 3 56
11 14 56 32 131 53 342 97 721 269 1070 487 592 370 1122 922 1476 1538 270
471 462 1036 529 1561 38 291 49 697 26 965 -59 693 -286 1379 -644 1940 -350
550 -786 996 -1316 1345 -287 189 -544 319 -875 443 -896 336 -1940 359 -2853
61 -614 -200 -1138 -508 -1620 -951 -717 -660 -1195 -1540 -1346 -2478 -47
-290 -51 -350 -51 -725 0 -375 4 -435 51 -725 190 -1183 893 -2256 1921 -2933
398 -262 811 -444 1298 -573 135 -36 144 -41 163 -87 13 -31 30 -32 -143 10
-377 91 -805 264 -1154 465 -679 392 -1250 967 -1642 1653 -558 978 -718 2153
-444 3260 177 717 529 1371 1047 1945 57 63 115 133 129 155 36 55 100 121
127 129 12 4 22 11 22 16 0 4 12 13 28 18 15 6 79 52 142 102 727 584 1562
916 2480 989 154 12 486 13 641 1z m-98 -1029 c54 -12 273 -36 311 -33 16 1
34 -2 40 -7 6 -5 58 -18 116 -30 58 -12 127 -29 153 -36 26 -8 54 -12 62 -9 8
3 27 -1 42 -10 47 -26 286 -108 322 -110 19 -1 36 -7 39 -14 5 -15 291 -154
303 -146 12 7 49 -14 49 -29 0 -7 15 -21 33 -31 17 -11 78 -48 135 -84 57 -35
106 -61 109 -58 9 9 43 -13 43 -29 0 -7 15 -24 33 -37 17 -12 71 -56 119 -95
48 -40 96 -73 107 -73 20 0 44 -22 39 -36 -4 -13 220 -234 236 -234 18 0 39
-26 32 -39 -4 -5 18 -38 47 -73 29 -35 74 -91 101 -125 28 -37 53 -60 61 -57
15 6 39 -31 30 -47 -4 -5 20 -51 53 -102 32 -51 70 -111 83 -134 16 -29 29
-41 40 -38 19 6 45 -41 26 -48 -8 -2 13 -56 58 -151 54 -113 74 -146 87 -142
20 5 32 -32 16 -51 -7 -9 -6 -24 6 -54 9 -23 15 -43 14 -45 -2 -1 -30 61 -63
138 -169 400 -436 785 -760 1097 -834 801 -2028 1120 -3146 841 -1334 -333
-2337 -1449 -2523 -2810 -51 -371 -34 -811 45 -1179 92 -422 299 -885 557
-1245 211 -294 510 -588 814 -799 361 -252 808 -445 1230 -531 257 -52 350
-61 693 -61 282 0 338 3 470 23 349 53 636 140 970 291 50 23 82 34 71 26 -10
-8 -59 -31 -107 -52 -70 -30 -88 -42 -85 -55 5 -21 -29 -34 -48 -19 -9 8 -40
0 -118 -29 -57 -21 -125 -45 -151 -52 -32 -8 -47 -17 -47 -29 0 -20 -39 -33
-46 -15 -4 10 -31 7 -119 -15 -63 -15 -134 -31 -159 -34 -36 -6 -46 -11 -46
-26 0 -14 -7 -19 -25 -19 -16 0 -25 6 -25 16 0 10 -6 13 -18 10 -20 -7 -255
-35 -289 -36 -14 0 -23 -6 -23 -15 0 -9 -9 -15 -25 -15 -14 0 -25 5 -25 10 0
6 -62 10 -165 10 -103 0 -165 -4 -165 -10 0 -5 -11 -10 -25 -10 -16 0 -25 6
-25 15 0 11 -11 15 -42 15 -24 0 -97 7 -162 17 -90 12 -121 13 -124 5 -5 -17
-40 -15 -50 4 -5 10 -50 24 -128 40 -65 13 -131 28 -146 33 -15 6 -43 7 -63 4
-26 -4 -35 -2 -35 8 0 9 -29 24 -77 39 -43 13 -111 37 -150 53 -42 16 -81 26
-92 22 -12 -4 -26 1 -38 13 -22 23 -288 152 -314 152 -10 0 -24 8 -31 18 -13
18 -218 147 -291 184 -20 10 -37 22 -37 27 0 5 -35 35 -77 67 -206 154 -406
347 -565 544 -55 69 -108 134 -117 146 -22 25 -162 244 -219 339 -22 39 -68
126 -100 195 -447 942 -436 2053 28 2980 334 667 859 1192 1520 1524 102 51
199 98 215 104 266 97 362 127 489 157 83 19 167 39 186 44 19 5 103 17 185
26 83 9 173 20 200 25 71 11 418 12 468 1z m-124 -401 c146 -11 335 -44 449
-79 34 -11 62 -18 62 -16 0 6 102 -31 175 -65 39 -17 78 -32 88 -33 9 -1 17
-5 17 -9 0 -4 7 -8 15 -8 22 0 19 -22 -10 -76 -24 -45 -35 -131 -19 -147 4 -3
31 28 61 69 31 41 57 73 59 71 2 -2 1 -38 -4 -80 -4 -43 -5 -77 0 -77 15 0 8
-45 -12 -78 -17 -28 -23 -32 -35 -22 -8 7 -15 10 -15 7 0 -3 -3 -12 -6 -20 -4
-11 1 -13 22 -9 21 4 26 2 22 -10 -9 -23 39 -45 115 -53 47 -5 67 -4 67 4 0
14 78 4 99 -13 18 -14 329 -18 354 -4 20 10 71 2 177 -29 116 -34 250 -121
238 -155 -13 -33 -92 -39 -563 -37 -741 2 -1717 -4 -1625 -11 47 -3 -54 -6
-225 -6 -179 0 -268 2 -210 6 68 4 22 6 -140 6 -132 0 -206 -2 -165 -5 41 -3
-154 -9 -435 -13 -285 -4 -525 -4 -545 1 l-35 9 35 3 c19 1 -5 5 -53 8 -96 7
-117 20 -93 56 13 21 123 103 241 181 179 118 266 174 271 174 2 0 48 26 102
59 94 56 345 182 447 223 259 105 511 162 785 177 74 4 137 9 140 9 3 1 70 -3
149 -8z m2215 -1094 c73 -22 118 -57 151 -117 33 -62 38 -144 13 -216 -24 -67
-2259 -4091 -2297 -4135 -19 -23 -58 -51 -85 -64 -94 -44 -181 -27 -262 51
-47 44 -113 158 -565 975 -281 509 -785 1418 -1120 2021 -335 604 -616 1117
-626 1140 -24 60 -24 172 1 219 34 64 88 107 166 131 14 4 1049 8 2301 8 1947
1 2283 -1 2323 -13z m390 -578 c24 -32 85 -188 139 -353 63 -193 102 -448 92
-605 -8 -116 -11 -127 -36 -135 -27 -9 -96 4 -113 21 -8 8 -22 14 -30 14 -9 0
-16 5 -16 10 0 18 -62 39 -83 28 -12 -6 -29 -6 -50 1 -17 6 -33 7 -36 3 -3 -5
-18 -2 -33 7 -20 13 -24 21 -17 31 20 32 10 40 -43 35 -50 -4 -73 -19 -61 -39
4 -5 -1 -7 -10 -3 -10 3 -17 2 -17 -3 0 -5 10 -10 23 -12 20 -3 19 -5 -10 -15
-27 -10 -31 -9 -26 3 3 9 -7 3 -24 -13 -16 -15 -28 -31 -26 -35 2 -4 -1 -9 -7
-13 -6 -4 -8 -10 -5 -15 9 -14 -5 -38 -25 -43 -11 -3 -40 -38 -66 -78 -26 -41
-51 -76 -55 -79 -4 -3 -21 -31 -38 -63 -47 -88 -130 -208 -167 -242 -6 -5 -29
-41 -51 -80 -23 -38 -69 -117 -104 -175 -34 -58 -75 -133 -91 -168 -16 -35
-73 -143 -128 -241 -95 -171 -340 -659 -340 -678 0 -5 -7 -18 -15 -28 -9 -11
-28 -43 -43 -72 -15 -29 -43 -83 -63 -120 -20 -37 -47 -104 -59 -148 -12 -44
-27 -86 -32 -92 -6 -7 -8 -22 -5 -33 3 -11 2 -20 -2 -20 -14 0 -1 -121 14
-136 8 -9 13 -20 9 -25 -3 -6 0 -16 6 -24 15 -18 -1 -20 -18 -3 -25 25 -23 -3
2 -37 15 -20 30 -48 32 -63 3 -15 13 -43 23 -62 10 -19 16 -41 13 -49 -3 -8 0
-11 7 -7 8 5 8 0 1 -18 -7 -21 -6 -26 5 -26 8 0 15 -5 15 -11 0 -5 -4 -7 -10
-4 -5 3 -10 0 -10 -9 0 -8 6 -16 13 -19 7 -2 12 -23 12 -54 0 -61 -8 -69 -148
-143 -116 -61 -279 -118 -474 -165 -174 -42 -230 -50 -265 -36 -56 21 -33 81
163 419 210 362 235 402 243 395 4 -4 4 -1 1 8 -3 8 2 23 11 34 8 11 13 13 9
5 -4 -8 1 -6 9 5 9 11 14 25 12 32 -3 7 0 15 6 19 7 5 8 2 3 -6 -6 -9 -4 -11
4 -6 7 5 10 15 7 23 -3 8 -2 12 3 9 10 -7 197 306 401 674 84 151 161 286 170
300 9 14 31 50 47 80 17 30 94 170 173 310 78 140 169 307 203 370 33 63 68
126 77 140 10 14 43 75 74 135 76 149 153 294 164 308 5 7 38 68 74 137 36 69
103 197 148 284 46 88 78 156 71 151 -22 -13 210 421 266 498 43 58 71 62 107
15z m-5362 -55 c32 -35 74 -107 180 -308 200 -376 188 -353 166 -339 -6 4 26
-64 72 -152 46 -87 116 -222 155 -299 39 -77 82 -160 97 -185 14 -25 58 -108
99 -185 40 -77 94 -180 121 -230 27 -49 62 -117 79 -150 16 -33 39 -76 51 -95
11 -19 33 -57 48 -85 57 -104 123 -222 155 -275 18 -30 43 -75 57 -100 13 -25
42 -76 64 -115 37 -62 157 -274 359 -630 37 -66 82 -142 100 -170 19 -27 71
-113 117 -190 46 -77 88 -141 93 -143 16 -5 27 -31 19 -44 -4 -6 -3 -8 2 -5
11 6 161 -243 241 -401 60 -116 67 -158 28 -168 -67 -17 -400 82 -573 171 -88
46 -101 56 -108 92 -6 29 28 210 46 243 5 9 6 27 3 40 -4 13 -2 21 3 17 6 -3
9 10 9 30 -1 19 4 37 10 39 8 4 9 18 3 52 -5 26 -11 58 -12 72 -1 14 -8 36
-15 48 -7 13 -10 26 -7 29 5 5 -30 104 -57 158 -30 61 -49 104 -51 118 -1 8
-10 27 -21 43 -10 16 -37 63 -58 104 -22 41 -56 104 -77 140 -21 36 -47 83
-56 105 -67 151 -230 471 -256 502 -6 7 -8 13 -5 13 3 0 -10 27 -29 61 -18 33
-34 66 -34 73 0 7 -16 31 -36 54 -19 23 -33 42 -29 42 4 0 -3 15 -14 34 -12
18 -21 40 -21 48 0 8 -16 35 -35 59 -19 24 -35 48 -35 53 0 5 -10 23 -23 40
-13 17 -49 76 -80 131 -31 55 -80 128 -109 162 -76 90 -103 126 -100 135 3 12
-112 170 -152 209 -10 10 -24 28 -30 40 -10 20 -76 66 -76 53 0 -2 -10 5 -22
16 -12 11 -28 18 -34 16 -6 -2 -16 0 -21 5 -6 6 -25 4 -52 -6 -25 -8 -59 -13
-80 -10 -20 3 -49 1 -66 -4 -29 -9 -29 -9 -5 -11 24 -2 24 -2 -5 -11 -47 -14
-126 -8 -172 12 -23 11 -48 19 -56 19 -46 0 -62 100 -46 290 17 203 69 417
154 640 52 136 77 156 127 103z m6023 -1803 c16 0 16 1 -21 -180 -39 -186 -57
-245 -76 -242 -10 1 -21 -8 -27 -25 -10 -25 -11 -25 -6 -3 4 14 21 84 40 155
18 72 41 180 52 240 10 61 19 98 21 83 2 -16 9 -28 17 -28z m-511 -1287 c-9
-16 -29 -45 -42 -66 -19 -28 -22 -41 -14 -49 16 -16 -4 -50 -28 -46 -23 4
-224 -242 -210 -256 15 -15 -9 -48 -29 -41 -25 8 -244 -210 -236 -235 7 -23
-20 -46 -38 -31 -11 8 -25 1 -63 -32 -28 -23 -85 -69 -127 -101 -59 -45 -76
-63 -72 -77 7 -22 -26 -44 -42 -28 -7 7 -40 -9 -102 -49 -50 -33 -112 -70
-137 -83 -33 -18 -44 -29 -40 -42 6 -23 -33 -45 -45 -26 -6 11 -15 10 -46 -5
-65 -31 -30 -7 84 56 434 241 846 620 1129 1038 37 55 70 100 72 100 2 0 -4
-12 -14 -27z"/>
<path d="M2837 6999 c-100 -24 -149 -79 -155 -175 -4 -57 -1 -72 31 -136 19
-40 527 -962 1130 -2048 1176 -2122 1142 -2065 1235 -2089 64 -18 117 0 171
57 33 35 323 549 1159 2057 613 1106 1123 2031 1133 2058 42 106 12 198 -81
251 l-55 31 -2265 2 c-1306 0 -2281 -3 -2303 -8z m4527 -49 c32 -5 70 -17 84
-26 l25 -17 -27 -14 c-21 -11 -34 -12 -59 -4 -22 8 -695 11 -2311 11 -1405 0
-2283 3 -2289 9 -13 13 24 31 82 41 69 11 4424 12 4495 0z m-4595 -90 c13 -7
19 -21 19 -51 1 -34 30 -94 171 -348 1661 -2998 2085 -3760 2106 -3781 25 -26
35 -80 15 -80 -45 0 -111 116 -1205 2089 -610 1102 -1118 2022 -1127 2044 -23
57 -23 137 -1 137 3 0 12 -4 22 -10z m4732 -88 c-10 -39 -2163 -3940 -2254
-4086 -27 -42 -77 -86 -99 -86 -20 0 -5 50 23 81 26 28 2132 3812 2245 4031
19 37 34 80 34 96 0 20 7 32 23 39 33 16 44 -15 28 -75z m-881 -161 c-85 -48
-1484 -813 -1494 -817 -11 -4 -1460 791 -1490 818 -6 4 667 8 1495 8 829 0
1497 -4 1489 -9z m66 -383 c-13 -24 -211 -387 -439 -808 -228 -421 -544 -1003
-702 -1295 -158 -291 -289 -532 -291 -534 -2 -2 -4 421 -4 940 l0 944 728 397
c400 218 728 397 730 397 2 1 -8 -18 -22 -41z m-2421 -366 l710 -390 2 -949
c2 -807 0 -944 -11 -923 -305 556 -1432 2660 -1423 2657 7 -3 332 -181 722
-395z"/>
<path d="M4090 6503 c1 -9 1012 -543 1028 -543 11 0 990 527 1006 541 6 5
-430 9 -1012 9 -562 0 -1022 -3 -1022 -7z"/>
<path d="M5898 5717 l-548 -302 0 -715 c0 -701 1 -714 19 -685 10 17 247 451
526 965 279 514 521 959 537 988 16 28 26 52 21 51 -4 0 -254 -136 -555 -302z"/>
<path d="M3780 6025 c0 -8 1081 -2018 1091 -2030 5 -5 8 281 7 709 l-3 718
-485 270 c-267 148 -513 285 -547 304 -35 19 -63 32 -63 29z"/>
</g>
</svg>
